#tb 0: 1/1000
0,          0,          0,        0,      792, df20e8df89449fe50bb610e95a449a95
0,         33,         33,        0,      792, 18f1a66d463274d1b0489f3a50e86857
0,         66,         66,        0,      792, b0cc102875a94c9a92e53826617adbe9
0,        100,        100,        0,      792, dfece7c17b4b149283ef51bdc1bd440e
0,        133,        133,        0,      792, 6e346884f67be259fcabe493109cb63c
0,        166,        166,        0,      792, 6d282127311eb2d958377490d7cb77f0
0,        200,        200,        0,      792, 637ac8b14ca5ddbaf7b8910406c3cd08
0,        233,        233,        0,      792, e7980f3fcb36969da0d218c4389fa9e8
0,        266,        266,        0,      792, 730a1c95b9fb165f6e1a2f33a0d25de0
0,        300,        300,        0,      792, 7bd8424d0783b1c8ad617e17408371bb
